Coordinates
version=1
nRows=29
nColumns=22
inDegrees=yes

Units are S.I. units (second, meters, Newtons, ...)
If the header above contains a line with 'inDegrees', this indicates whether rotational values are in degrees (yes) or radians (no).

endheader
time	pelvis_tilt	pelvis_list	pelvis_rotation	pelvis_tx	pelvis_ty	pelvis_tz	hip_flexion_r	hip_adduction_r	hip_rotation_r	knee_angle_r	ankle_angle_r	subtalar_angle_r	hip_flexion_l	hip_adduction_l	hip_rotation_l	knee_angle_l	ankle_angle_l	subtalar_angle_l	lumbar_extension	lumbar_bending	lumbar_rotation
      2.62000000	      7.12708107	      1.45799230	    -43.80161461	     -0.03547132	      0.90091972	     -0.02927635	     21.05217924	     -6.22150315	     -3.51998297	    -60.81837468	     15.45911910	    -17.32652489	     -0.91526355	      3.96479792	    -11.62999469	    -18.87435555	     15.17881620	     -0.14598398	    -13.53871596	     -5.71916805	      1.49507506
      2.63000000	      7.04197051	      1.14477534	    -43.81900308	     -0.02847876	      0.90078866	     -0.02412951	     21.54609884	     -6.24016949	     -4.72358056	    -58.84692076	     15.96356978	    -17.58140887	     -1.81839154	      3.75558864	    -11.72080291	    -18.67003992	     15.64192225	     -0.11326215	    -13.77928737	     -5.31794736	      0.98540871
      2.64000000	      6.97781728	      0.82077527	    -43.86911987	     -0.02160440	      0.90051779	     -0.01881587	     21.92945635	     -6.26490001	     -5.93767761	    -56.71284059	     16.43156306	    -17.84876524	     -2.74382725	      3.55183291	    -11.83395839	    -18.47602462	     16.08379738	     -0.13935312	    -14.04333233	     -4.94540496	      0.55671826
      2.65000000	      6.85958995	      0.50490060	    -43.90652413	     -0.01483191	      0.90001158	     -0.01339629	     22.26959456	     -6.26529555	     -7.22323483	    -54.42809159	     16.75482159	    -17.85420972	     -3.58243145	      3.30335312	    -11.91974648	    -18.35861750	     16.64529549	     -0.19664325	    -14.25511231	     -4.54757349	      0.14052586
      2.66000000	      6.77871329	      0.15641155	    -43.96659501	     -0.00814242	      0.89946113	     -0.00779466	     22.44696688	     -6.25843982	     -8.55311032	    -51.97132527	     17.01688871	    -17.72867542	     -4.49486531	      3.06056109	    -12.00827103	    -18.21623230	     17.17433842	     -0.30973349	    -14.51937833	     -4.16830160	     -0.21365869
      2.67000000	      6.70966438	     -0.21468427	    -44.03496765	     -0.00153265	      0.89883214	     -0.00202871	     22.49251281	     -6.23457198	     -9.96020659	    -49.36186831	     17.18293846	    -17.42243819	     -5.44010020	      2.80685570	    -12.08918961	    -18.07336883	     17.70484265	     -0.45051840	    -14.80427892	     -3.79300010	     -0.52402627
      2.68000000	      6.65455084	     -0.60250356	    -44.10639839	      0.00501239	      0.89813845	      0.00393014	     22.40516073	     -6.19107006	    -11.46009507	    -46.60681968	     17.24912705	    -16.92408988	     -6.42099864	      2.54389872	    -12.17041290	    -17.92449594	     18.22553797	     -0.58892358	    -15.10238899	     -3.43059284	     -0.79754890
      2.69000000	      6.62202710	     -1.01616113	    -44.17789927	      0.01150683	      0.89741197	      0.01006680	     22.17152595	     -6.11678218	    -13.05119595	    -43.71791905	     17.26042128	    -16.15515890	     -7.45161468	      2.27059582	    -12.25571967	    -17.76723779	     18.70741697	     -0.70493410	    -15.42854346	     -3.07481673	     -1.05769880
      2.70000000	      6.60209330	     -1.43711623	    -44.23726381	      0.01795532	      0.89662775	      0.01636391	     21.82921192	     -6.02035939	    -14.76856952	    -40.73265381	     17.14921451	    -15.30788655	     -8.49541884	      1.98623438	    -12.34720029	    -17.62833303	     19.17348630	     -0.75906273	    -15.76098807	     -2.73177216	     -1.27204469
      2.71000000	      6.59048191	     -1.88179311	    -44.27289323	      0.02434796	      0.89581112	      0.02283348	     21.36743791	     -5.86254585	    -16.59296663	    -37.65829815	     16.99362561	    -14.24612182	     -9.56076735	      1.66449321	    -12.46389342	    -17.50823712	     19.59059773	     -0.75027842	    -16.11275891	     -2.38462206	     -1.50417578
      2.72000000	      6.60053870	     -2.33463806	    -44.29173926	      0.03067808	      0.89496038	      0.02948418	     20.81393751	     -5.65485969	    -18.50579278	    -34.54650007	     16.78495614	    -13.15714400	    -10.64927175	      1.33218183	    -12.57860507	    -17.40045557	     19.97286533	     -0.67666816	    -16.47800600	     -2.05982037	     -1.71764937
      2.73000000	      6.61748210	     -2.77820157	    -44.29113564	      0.03695773	      0.89404341	      0.03631005	     20.21605871	     -5.39043304	    -20.47391682	    -31.44780609	     16.54663071	    -11.85726293	    -11.72619653	      0.98340307	    -12.73008767	    -17.32427556	     20.29063444	     -0.52407234	    -16.82952742	     -1.75544722	     -1.94148794
      2.74000000	      6.63087215	     -3.19401139	    -44.26968721	      0.04316168	      0.89303281	      0.04329628	     19.62718972	     -5.06668648	    -22.43270808	    -28.42637079	     16.29209607	    -10.49293905	    -12.75738859	      0.62146269	    -12.89765596	    -17.29584734	     20.56854363	     -0.31150850	    -17.14660339	     -1.47766835	     -2.17980717
      2.75000000	      6.64433288	     -3.58273938	    -44.23477120	      0.04931200	      0.89194215	      0.05045619	     19.06746572	     -4.68820195	    -24.32693502	    -25.54599243	     16.06505990	     -9.21135697	    -13.76835835	      0.26278442	    -13.03149826	    -17.27474698	     20.83850886	     -0.06686312	    -17.43096164	     -1.23047106	     -2.40162730
      2.76000000	      6.62517425	     -3.90110501	    -44.18118282	      0.05539845	      0.89070407	      0.05774125	     18.62459127	     -4.27465469	    -26.05911828	    -22.88027213	     15.85338881	     -7.84569048	    -14.65566748	     -0.10164299	    -13.18580777	    -17.34033966	     21.02270108	      0.21840202	    -17.62350081	     -1.01254579	     -2.67899827
      2.77000000	      6.57327842	     -4.14023719	    -44.11767556	      0.06146495	      0.88932832	      0.06515780	     18.32823001	     -3.86458606	    -27.60206095	    -20.51885529	     15.64139832	     -6.52392331	    -15.42053604	     -0.45497968	    -13.33126647	    -17.47935962	     21.15903645	      0.51422830	    -17.70950262	     -0.82802806	     -2.99486035
      2.78000000	      6.49773425	     -4.32691554	    -44.03676439	      0.06751541	      0.88788026	      0.07270103	     18.14240284	     -3.45899082	    -28.89752575	    -18.48610648	     15.50175585	     -5.39963546	    -16.09692248	     -0.80409515	    -13.39593772	    -17.67423471	     21.26640229	      0.78366600	    -17.72525010	     -0.66572879	     -3.32310336
      2.79000000	      6.38369487	     -4.46476854	    -43.93055623	      0.07361921	      0.88636734	      0.08035247	     18.06840525	     -3.07605236	    -29.94489084	    -16.82115830	     15.42918632	     -4.48878890	    -16.66115927	     -1.16228129	    -13.35399582	    -17.95659253	     21.38311908	      1.01556904	    -17.65528645	     -0.49595134	     -3.66659704
      2.80000000	      6.23192790	     -4.54621181	    -43.81120976	      0.07980624	      0.88482526	      0.08812728	     18.10724770	     -2.74352271	    -30.72908447	    -15.55609304	     15.35713788	     -3.62277503	    -17.10593509	     -1.52331192	    -13.26572372	    -18.33042093	     21.33479549	      1.22707761	    -17.48908088	     -0.32459482	     -4.05277601
      2.81000000	      6.05608530	     -4.62310068	    -43.66564284	      0.08611537	      0.88332689	      0.09604594	     18.17261900	     -2.43720590	    -31.26185638	    -14.65742702	     15.35155044	     -3.03560883	    -17.48292793	     -1.91038572	    -13.04849084	    -18.79647992	     21.26510627	      1.37691322	    -17.27762323	     -0.11710763	     -4.45384801
      2.82000000	      5.84585224	     -4.68638508	    -43.50113302	      0.09256365	      0.88186625	      0.10412112	     18.27120733	     -2.16180657	    -31.54195681	    -14.12417921	     15.37895153	     -2.80116801	    -17.77264267	     -2.32042686	    -12.71276348	    -19.36304498	     21.13062070	      1.44067517	    -17.00124144	      0.12954579	     -4.89277313
      2.83000000	      5.63202941	     -4.78341788	    -43.34150082	      0.09913421	      0.88054288	      0.11243505	     18.31432124	     -1.88539097	    -31.61652257	    -13.89921432	     15.39099773	     -2.63788638	    -18.04277203	     -2.75913516	    -12.28793001	    -20.02698660	     20.83051529	      1.49915292	    -16.72347772	      0.41355084	     -5.28269410
      2.84000000	      5.40659962	     -4.90429003	    -43.20743718	      0.10582558	      0.87932767	      0.12101881	     18.31587722	     -1.59497089	    -31.45050075	    -13.96047652	     15.39789525	     -2.62010654	    -18.29341601	     -3.21376399	    -11.79178250	    -20.76351468	     20.41611867	      1.53682896	    -16.42267532	      0.73803483	     -5.67652501
      2.85000000	      5.16162114	     -5.06074047	    -43.05988046	      0.11259192	      0.87821792	      0.12981225	     18.26860348	     -1.27911479	    -31.18434567	    -14.26794209	     15.34988544	     -2.84989764	    -18.45882079	     -3.72236283	    -11.18104295	    -21.68493765	     19.92485069	      1.63814035	    -16.11862222	      1.11443793	     -6.05121022
      2.86000000	      4.88260006	     -5.20371267	    -42.98713495	      0.11937056	      0.87715626	      0.13892958	     18.23397693	     -0.91575743	    -30.66337232	    -14.77211766	     15.29824366	     -3.65932894	    -18.54171571	     -4.22088221	    -10.53216183	    -22.70695882	     19.22664124	      1.82020067	    -15.74738524	      1.49917126	     -6.38993732
      2.87000000	      4.58248874	     -5.34255449	    -42.95568149	      0.12611758	      0.87617745	      0.14827396	     18.20691460	     -0.51768083	    -30.02980585	    -15.44260801	     15.12818612	     -4.66316663	    -18.49666914	     -4.72517672	     -9.82240343	    -23.92366934	     18.35433004	      1.96543522	    -15.34838597	      1.89387135	     -6.71112501
      2.88000000	      4.24972534	     -5.46446405	    -42.99972591	      0.13275408	      0.87527212	      0.15786930	     18.22019843	     -0.06157211	    -29.25678766	    -16.22918086	     14.88402200	     -6.02951859	    -18.30689095	     -5.22123940	     -9.06716227	    -25.32244964	     17.25411452	      2.18406028	    -14.90535497	      2.28181959	     -6.96252381
      2.89000000	      3.89831745	     -5.57975380	    -43.13167276	      0.13925060	      0.87449644	      0.16768424	     18.25476659	      0.46438990	    -28.34895953	    -17.07088969	     14.60172923	     -7.72894983	    -17.98182952	     -5.69366602	     -8.24737006	    -26.90588135	     15.86898406	      2.47808255	    -14.44639097	      2.66239033	     -7.11930340
      2.90000000	      3.51929012	     -5.66530953	    -43.32912266	      0.14555500	      0.87381953	      0.17761312	     18.36085884	      1.03200401	    -27.34941094	    -17.97318106	     14.24968199	     -9.57441212	    -17.44509542	     -6.14934047	     -7.37628982	    -28.73694587	     14.22748216	      2.85226397	    -13.95939004	      3.03006185	     -7.25235884
